# xmcd
#
# Track frame offsets: 
#        150
#        29724
#        56245
#        72145
#        93158
#        108118
#        125638
#        146916
#        163155
#        178957
#
# Disc length: 2764 seconds
#
# Revision: 1
# Processed by: cddbd v1.5.2PL0 Copyright (c) Steve Scherf et al.
# Submitted via: ExactAudioCopy v0.95a4
#
DISCID=970aca0a
DTITLE=Bryan Adams - (Everything I Do) I Do It For You
DYEAR=2001
DGENRE=Blues
TTITLE0=(Everything I Do) I Do It For You
TTITLE1=Please Forgive Me
TTITLE2=Straight From The Heart
TTITLE3=All For Love
TTITLE4=This Time
TTITLE5=Run To You (with Rod Stewart and Sting)
TTITLE6=Somebody
TTITLE7=Summer of '69
TTITLE8=Hearts On Fire
TTITLE9=Let's Make A Night To Remember
EXTD=
EXTT0=
EXTT1=
EXTT2=
EXTT3=
EXTT4=
EXTT5=
EXTT6=
EXTT7=
EXTT8=
EXTT9=
PLAYORDER=
